<svg id="visual" viewBox="0 0 8000 8000" width="8000" height="8000" xmlns="http://www.w3.org/2000/svg"
     xmlns:xlink="http://www.w3.org/1999/xlink" version="1.1">
    <path d="M 0 6955 L 222.2 6949.2 C 444.3 6943.3 888.7 6931.7 1333.2 6946.8 C 1777.7 6962 2222.3 7004 2666.8 7042.8 C 3111.3 7081.7 3555.7 7117.3 4000 7112.5 C 4444.3 7107.7 4888.7 7062.3 5333.2 7060.7 C 5777.7 7059 6222.3 7101 6666.8 7119.2 C 7111.3 7137.3 7517 7103 7711 7026 L 8000 6955 L 8000 8001 L 7777.8 8001 C 7555.7 8001 7111.3 8001 6666.8 8001 C 6222.3 8001 5777.7 8001 5333.2 8001 C 4888.7 8001 4444.3 8001 4000 8001 C 3555.7 8001 3111.3 8001 2666.8 8001 C 2222.3 8001 1777.7 8001 1333.2 8001 C 888.7 8001 444.3 8001 222.2 8001 L 0 8001 Z"
          fill="#080808"></path>
</svg>