<svg id="visual" viewBox="0 0 8000 8000" width="8000" height="8000" xmlns="http://www.w3.org/2000/svg"
     xmlns:xlink="http://www.w3.org/1999/xlink" version="1.1">
    <path d="M 0 7399 L 155 7460 C 522 7606 888.7 7560.7 1333.2 7579.5 C 1777.7 7598.3 2222.3 7633.7 2666.8 7558.5 C 3111.3 7483.3 3555.7 7297.7 4000 7218.8 C 4444.3 7140 4888.7 7168 5333.2 7244.7 C 5777.7 7321.3 6222.3 7446.7 6666.8 7480.5 C 7111.3 7514.3 7555.7 7456.7 7777.8 7427.8 L 8000 7399 L 8000 8001 L 7777.8 8001 C 7555.7 8001 7111.3 8001 6666.8 8001 C 6222.3 8001 5777.7 8001 5333.2 8001 C 4888.7 8001 4444.3 8001 4000 8001 C 3555.7 8001 3111.3 8001 2666.8 8001 C 2222.3 8001 1777.7 8001 1333.2 8001 C 888.7 8001 444.3 8001 222.2 8001 L 0 8001 Z"
          fill="#040404"></path>
</svg>