<svg id="visual" viewBox="0 0 8000 8000" width="8000" height="8000" xmlns="http://www.w3.org/2000/svg"
     xmlns:xlink="http://www.w3.org/1999/xlink" version="1.1">
    <path d="M 0 6164 L 188 6004 C 570 5713 1180 5566 1466 5459 C 1777.7 5342.3 2222.3 5348.7 2666.8 5383.5 C 3111.3 5418.3 3555.7 5481.7 4000 5500.8 C 4444.3 5520 4888.7 5495 5333.2 5470 C 5777.7 5445 6222.3 5420 6666.8 5535.7 C 7111.3 5651.3 7555.7 5907.7 7777.8 6035.8 L 8000 6164 L 8000 8001 L 7777.8 8001 C 7555.7 8001 7111.3 8001 6666.8 8001 C 6222.3 8001 5777.7 8001 5333.2 8001 C 4888.7 8001 4444.3 8001 4000 8001 C 3555.7 8001 3111.3 8001 2666.8 8001 C 2222.3 8001 1777.7 8001 1333.2 8001 C 888.7 8001 444.3 8001 222.2 8001 L 0 8001 Z"
          fill="#101010"></path>
</svg>