<svg id="visual" viewBox="0 0 8000 8000" width="8000" height="8000" xmlns="http://www.w3.org/2000/svg" version="1.1">
    <path d="M 0 3791 L 222.2 3775 C 444.3 3759 888.7 3727 1333.2 3725.8 C 1777.7 3724.7 2222.3 3754.3 2666.8 3694.3 C 3111.3 3634.3 3555.7 3484.7 4000 3594.8 C 4444.3 3705 4888.7 4075 5333.2 4187 C 5777.7 4299 6222.3 4153 6666.8 4038 C 7111.3 3923 7555.7 3839 7777.8 3816 L 8000 3791 L 8000 8001 L 7777.8 8001 C 7555.7 8001 7111.3 8001 6666.8 8001 C 6222.3 8001 5777.7 8001 5333.2 8001 C 4888.7 8001 4444.3 8001 4000 8001 C 3555.7 8001 3111.3 8001 2666.8 8001 C 2222.3 8001 1777.7 8001 1333.2 8001 C 888.7 8001 444.3 8001 222.2 8001 L 0 8001 Z" fill="#202020" />
</svg>