<svg id="visual" viewBox="0 0 8000 8000" width="8000" height="8000" xmlns="http://www.w3.org/2000/svg"
     xmlns:xlink="http://www.w3.org/1999/xlink" version="1.1">
    <path d="M 0 5300 L 529 5232 C 979 5157 1059 5150 1333.2 5189.8 C 1775 5246 2222.3 5182.3 2666.8 5236.7 C 3111.3 5291 3555.7 5466 4000 5421.5 C 4444.3 5377 4888.7 5113 5333.2 5034.5 C 5777.7 4956 6222.3 5063 6666.8 5138.2 C 7111.3 5213.3 7555.7 5256.7 7777.8 5278.3 L 8000 5300 L 8000 8001 L 7777.8 8001 C 7555.7 8001 7111.3 8001 6666.8 8001 C 6222.3 8001 5777.7 8001 5333.2 8001 C 4888.7 8001 4444.3 8001 4000 8001 C 3555.7 8001 3111.3 8001 2666.8 8001 C 2222.3 8001 1777.7 8001 1333.2 8001 C 888.7 8001 444.3 8001 222.2 8001 L 0 8001 Z"
          fill="#141414"></path>
</svg>