<svg id="visual" viewBox="0 0 8000 8000" width="8000" height="8000" xmlns="http://www.w3.org/2000/svg"
     xmlns:xlink="http://www.w3.org/1999/xlink" version="1.1">
    <path d="M 0 4652 L 232 4588 C 458 4530 888.7 4371 1333.2 4222.7 C 1777.7 4074.3 2222.3 3996.7 2666.8 4059.2 C 3111.3 4121.7 3555.7 4324.3 4000 4337.8 C 4444.3 4351.3 4888.7 4175.7 5333.2 4123.8 C 5777.7 4072 6222.3 4144 6666.8 4252.7 C 7111.3 4361.3 7555.7 4506.7 7777.8 4579.3 L 8000 4652 L 8000 8001 L 7777.8 8001 C 7555.7 8001 7111.3 8001 6666.8 8001 C 6222.3 8001 5777.7 8001 5333.2 8001 C 4888.7 8001 4444.3 8001 4000 8001 C 3555.7 8001 3111.3 8001 2666.8 8001 C 2222.3 8001 1777.7 8001 1333.2 8001 C 888.7 8001 444.3 8001 222.2 8001 L 0 8001 Z"
          fill="#1c1c1c"></path>
</svg>