<svg id="visual" viewBox="0 0 8000 8000" width="8000" height="8000" xmlns="http://www.w3.org/2000/svg"
     xmlns:xlink="http://www.w3.org/1999/xlink" version="1.1">
    <path d="M 0 5182 L 415 5090 C 612 5045 922 5040 1333.2 5039.8 C 1777.7 5028.3 2222.3 4795.7 2666.8 4623 C 3111.3 4450.3 3555.7 4337.7 4000 4314.2 C 4444.3 4290.7 4888.7 4356.3 5333.2 4435.5 C 5777.7 4514.7 6222.3 4607.3 6666.8 4734 C 7111.3 4860.7 7555.7 5021.3 7777.8 5101.7 L 8000 5182 L 8000 8001 L 7777.8 8001 C 7555.7 8001 7111.3 8001 6666.8 8001 C 6222.3 8001 5777.7 8001 5333.2 8001 C 4888.7 8001 4444.3 8001 4000 8001 C 3555.7 8001 3111.3 8001 2666.8 8001 C 2222.3 8001 1777.7 8001 1333.2 8001 C 888.7 8001 444.3 8001 222.2 8001 L 0 8001 Z"
          fill="#181818"></path>
</svg>