<svg id="visual" viewBox="0 0 8000 8000" width="8000" height="8000" xmlns="http://www.w3.org/2000/svg"
     xmlns:xlink="http://www.w3.org/1999/xlink" version="1.1">
    <path d="M 0 6007 L 222.2 6010.2 C 444.3 6013.3 888.7 6019.7 1333.2 6146.3 C 1777.7 6273 2222.3 6520 2666.8 6620.2 C 3111.3 6720.3 3555.7 6673.7 4000 6545.3 C 4444.3 6417 4888.7 6207 5333.2 6172.3 C 5777.7 6137.7 6222.3 6278.3 6666.8 6375.7 C 7111.3 6473 7309 6421 7741 6174 L 8000 6007 L 8000 8001 L 7777.8 8001 C 7555.7 8001 7111.3 8001 6666.8 8001 C 6222.3 8001 5777.7 8001 5333.2 8001 C 4888.7 8001 4444.3 8001 4000 8001 C 3555.7 8001 3111.3 8001 2666.8 8001 C 2222.3 8001 1777.7 8001 1333.2 8001 C 888.7 8001 444.3 8001 222.2 8001 L 0 8001 Z"
          fill="#0c0c0c"></path>
</svg>